<svg width="281" height="167" viewBox="0 0 281 167" fill="none" xmlns="http://www.w3.org/2000/svg">
<path d="M29.8704 113.701H24.3042V153.32H29.8704V113.701Z" fill="#111111"/>
<path opacity="0.2" d="M29.8704 113.701H24.3042V153.32H29.8704V113.701Z" fill="white"/>
<path d="M13.9341 110.464C13.9341 110.464 14.2615 122.397 24.63 128.763L24.5208 125.198C24.5208 125.198 17.6449 118.395 18.4089 112.574L13.9341 110.464Z" fill="#111111"/>
<path opacity="0.2" d="M13.9341 110.464C13.9341 110.464 14.2615 122.397 24.63 128.763L24.5208 125.198C24.5208 125.198 17.6449 118.395 18.4089 112.574L13.9341 110.464Z" fill="white"/>
<path d="M40.8913 110.464C40.8913 110.464 40.091 122.833 29.7225 129.2L29.1768 125.089C29.1768 125.089 38.1992 119.013 36.8167 111.737L40.8913 110.464Z" fill="#111111"/>
<path opacity="0.2" d="M40.8913 110.464C40.8913 110.464 40.091 122.833 29.7225 129.2L29.1768 125.089C29.1768 125.089 38.1992 119.013 36.8167 111.737L40.8913 110.464Z" fill="white"/>
<path opacity="0.2" d="M29.8694 114.282H27.3228V153.319H29.8694V114.282Z" fill="black"/>
<path opacity="0.2" d="M15.9346 111.918C15.9346 111.918 17.1715 122.578 24.3385 126.543L24.3021 125.015C24.3021 125.015 18.081 118.867 18.2993 112.827C17.5717 112.464 16.7713 112.173 15.9346 111.918Z" fill="black"/>
<path opacity="0.2" d="M38.6393 111.881C38.6393 111.881 39.5489 119.921 29.908 126.833L29.8352 124.65C29.8352 124.65 37.4752 119.339 36.8931 112.572L38.6393 111.881Z" fill="black"/>
<path d="M52.6468 92.8907C52.5012 105.515 42.1328 115.629 29.4723 115.483C17.0665 115.338 7.02541 105.297 6.87988 92.8907C6.87988 80.2666 17.1392 53.5996 29.7633 53.5996C42.3874 53.5996 52.6468 80.2666 52.6468 92.8907Z" fill="#2DD555"/>
<path opacity="0.4" d="M52.6468 92.8907C52.5012 105.515 42.1328 115.629 29.4723 115.483C17.0665 115.338 7.02541 105.297 6.87988 92.8907C6.87988 80.2666 17.1392 53.5996 29.7633 53.5996C42.3874 53.5996 52.6468 80.2666 52.6468 92.8907Z" fill="white"/>
<path opacity="0.1" d="M44.3483 65.6055C44.3847 66.2967 44.3847 66.9879 44.3847 67.6792C44.3847 87.8704 32.0517 104.205 16.8446 104.205C14.1888 104.205 11.533 103.696 9.05908 102.714C14.5162 114.101 28.1589 118.94 39.5461 113.519C47.5134 109.735 52.5704 101.695 52.5704 92.891C52.6431 85.7967 49.4052 74.3368 44.3483 65.6055Z" fill="black"/>
<path opacity="0.05" d="M52.862 92.9638C52.862 80.3761 42.5299 54.0364 29.6875 53.418V115.993C42.5299 115.738 52.862 105.515 52.862 92.9638Z" fill="black"/>
<path d="M55.5885 105.298C55.3338 113.011 48.9308 119.05 41.2181 118.832C33.6145 118.613 27.6117 112.356 27.6845 104.752C27.83 97.0395 34.4149 80.9228 42.1276 81.0684C49.8403 81.2139 55.7704 97.6216 55.5885 105.298Z" fill="#2DD555"/>
<path opacity="0.4" d="M55.5885 105.298C55.3338 113.011 48.9308 119.05 41.2181 118.832C33.6145 118.613 27.6117 112.356 27.6845 104.752C27.83 97.0395 34.4149 80.9228 42.1276 81.0684C49.8403 81.2139 55.7704 97.6216 55.5885 105.298Z" fill="white"/>
<path opacity="0.1" d="M50.8987 88.5625C50.8987 88.9991 50.8987 89.3993 50.8987 89.8358C50.6441 102.132 42.9314 111.955 33.6543 111.773C32.0172 111.737 30.4164 111.41 28.9248 110.755C32.0899 117.776 40.3483 120.905 47.3698 117.74C52.2812 115.521 55.4463 110.682 55.5919 105.298C55.701 101.005 53.882 93.9468 50.8987 88.5625Z" fill="black"/>
<path opacity="0.05" d="M55.7368 105.333C55.8824 97.657 49.9159 81.4676 42.0941 80.9219L41.3301 119.085C49.1519 119.122 55.5913 113.01 55.7368 105.333Z" fill="black"/>
<path d="M25.1027 101.223C24.9935 108.135 19.2818 113.665 12.3331 113.556C5.56625 113.447 0.109142 107.99 0 101.223C0 94.3106 5.60262 79.6855 12.5513 79.6855C19.5 79.6855 25.1027 94.2742 25.1027 101.223Z" fill="#2DD555"/>
<path opacity="0.4" d="M25.1027 101.223C24.9935 108.135 19.2818 113.665 12.3331 113.556C5.56625 113.447 0.109142 107.99 0 101.223C0 94.3106 5.60262 79.6855 12.5513 79.6855C19.5 79.6855 25.1027 94.2742 25.1027 101.223Z" fill="white"/>
<path opacity="0.1" d="M20.5916 86.2695C20.5916 86.6333 20.628 87.0335 20.628 87.4337C20.628 98.4934 13.8612 107.443 5.52998 107.443C4.07475 107.443 2.61952 107.152 1.27344 106.643C4.25665 112.9 11.7511 115.556 18.0085 112.573C22.3742 110.499 25.1392 106.097 25.1392 101.258C25.1028 97.3293 23.3565 91.0354 20.5916 86.2695Z" fill="black"/>
<path opacity="0.05" d="M25.2508 101.26C25.2508 94.3477 19.5754 79.9046 12.554 79.5771V113.884C19.5754 113.739 25.2508 108.136 25.2508 101.26Z" fill="black"/>
<path d="M224.614 39.9941H138.137V154.266H224.614V39.9941Z" fill="#F55A08"/>
<path opacity="0.23" d="M224.614 39.9941H138.137V154.266H224.614V39.9941Z" fill="white"/>
<path opacity="0.2" d="M224.614 39.9941H138.246V48.4344H224.614V39.9941Z" fill="black"/>
<path opacity="0.15" d="M224.614 128.835H138.137V154.301H224.614V128.835Z" fill="black"/>
<path d="M60.7175 36.3188V154.301H138.136V36.3188L99.4266 13.0352L60.7175 36.3188Z" fill="#F55A08"/>
<path opacity="0.43" d="M60.7175 36.3188V154.301H138.136V36.3188L99.4266 13.0352L60.7175 36.3188Z" fill="white"/>
<path opacity="0.15" d="M138.136 128.835H60.7175V154.301H138.136V128.835Z" fill="black"/>
<path opacity="0.2" d="M60.281 36.3188V44.3953L95.8249 22.0576L138.281 48.6155V41.5212L99.0264 13.0352L60.281 36.3188Z" fill="black"/>
<path d="M48.3132 39.9939L95.317 9.36133L142.321 39.9939L139.374 46.1058L95.317 17.4015L51.2964 46.1058L48.3132 39.9939Z" fill="white"/>
<path d="M232.327 38.3564H139.338V46.1055H232.327V38.3564Z" fill="white"/>
<path opacity="0.1" d="M232.327 38.3564H139.338V46.1055H232.327V38.3564Z" fill="black"/>
<path d="M110.086 47.7783H82.5093V82.1945H110.086V47.7783Z" fill="white"/>
<path opacity="0.15" d="M110.051 47.707H109.287V82.1231H110.051V47.707Z" fill="black"/>
<path d="M107.58 49.4531H85.0239V80.4858H107.58V49.4531Z" fill="#2DD555"/>
<path opacity="0.9" d="M107.58 49.4531H85.0239V80.4858H107.58V49.4531Z" fill="white"/>
<path d="M96.8078 49.8174H94.8069V80.4499H96.8078V49.8174Z" fill="white"/>
<path opacity="0.6" d="M85.1316 72.5192L101.83 49.4902H107.506V55.3111L88.6969 80.4138H85.1316V72.5192Z" fill="white"/>
<path opacity="0.15" d="M85.0215 49.3799H84.3667V80.4126H85.0215V49.3799Z" fill="black"/>
<path opacity="0.15" d="M96.8072 49.7441H96.1523V80.4494H96.8072V49.7441Z" fill="black"/>
<path d="M107.614 71.4258H84.3667V72.5172H107.614V71.4258Z" fill="white"/>
<path opacity="0.6" d="M98.7371 80.4118L107.578 69.4248V76.9192L104.194 80.4845L98.7371 80.4118Z" fill="white"/>
<path opacity="0.6" d="M85.1316 57.4576L90.7342 49.4902H96.5551L85.1316 64.2244V57.4576Z" fill="white"/>
<path d="M205.552 53.4912H159.494V81.4679H205.552V53.4912Z" fill="white"/>
<path opacity="0.15" d="M160.22 53.418H159.529V81.3947H160.22V53.418Z" fill="black"/>
<path d="M203.877 55.0186H161.748V79.9393H203.877V55.0186Z" fill="#2DD555"/>
<path opacity="0.9" d="M203.877 55.0186H161.748V79.9393H203.877V55.0186Z" fill="white"/>
<path d="M184.775 54.9102H182.956V79.8673H184.775V54.9102Z" fill="white"/>
<path opacity="0.6" d="M198.166 79.7586L172.009 55.0198L161.786 54.8379V59.5674L182.668 79.7586H198.166Z" fill="white"/>
<path opacity="0.15" d="M204.203 54.9463H203.584V79.867H204.203V54.9463Z" fill="black"/>
<path opacity="0.15" d="M183.575 54.8379H182.956V79.8678H183.575V54.8379Z" fill="black"/>
<path opacity="0.6" d="M173.573 79.7577L161.786 71.1719V75.392L167.861 79.7577H173.573Z" fill="white"/>
<path opacity="0.6" d="M203.551 64.0771L192.091 55.2002H184.851L203.551 70.1527V64.0771Z" fill="white"/>
<path d="M149.197 154.301H185.797V103.841L149.197 90.999V154.301Z" fill="#F55A08"/>
<path opacity="0.43" d="M149.197 154.301H185.797V103.841L149.197 90.999V154.301Z" fill="white"/>
<path opacity="0.15" d="M184.451 134.693H149.197V154.303H184.451V134.693Z" fill="black"/>
<path d="M246.622 103.842H184.484V154.302H246.622V103.842Z" fill="#F55A08"/>
<path opacity="0.23" d="M246.622 103.842H184.484V154.302H246.622V103.842Z" fill="white"/>
<path opacity="0.2" d="M246.625 103.842H185.797V107.916H246.625V103.842Z" fill="black"/>
<path opacity="0.15" d="M246.658 134.693H184.484V154.303H246.658V134.693Z" fill="black"/>
<path opacity="0.2" d="M149.197 93.6184L185.797 107.916V103.841L149.197 90.999V93.6184Z" fill="black"/>
<path d="M146.323 86.4893H213.3L250.335 103.115H186.778L146.323 86.4893Z" fill="#111111"/>
<path opacity="0.2" d="M146.323 86.4893H213.3L250.335 103.115H186.778L146.323 86.4893Z" fill="white"/>
<path d="M185.944 106.643H250.228L250.374 102.969L186.162 102.678L185.944 106.643Z" fill="white"/>
<path opacity="0.1" d="M185.944 106.643H250.228L250.374 102.969L186.162 102.678L185.944 106.643Z" fill="black"/>
<path opacity="0.2" d="M157.419 92.201L146.323 86.4893H213.3L223.377 92.201H157.419Z" fill="black"/>
<path d="M146.505 86.6328L186.123 102.677L185.941 106.642L146.323 90.4164L146.505 86.6328Z" fill="white"/>
<path d="M239.861 116.394H190.674V154.302H239.861V116.394Z" fill="white"/>
<path d="M237.745 118.14H193.07V154.338H237.745V118.14Z" fill="#111111"/>
<path opacity="0.6" d="M237.745 118.14H193.07V154.338H237.745V118.14Z" fill="white"/>
<path opacity="0.15" d="M237.745 151.281H193.07V152.482H237.745V151.281Z" fill="black"/>
<path opacity="0.15" d="M237.745 148.626H193.07V149.827H237.745V148.626Z" fill="black"/>
<path opacity="0.15" d="M237.745 145.934H193.07V147.134H237.745V145.934Z" fill="black"/>
<path opacity="0.15" d="M237.745 143.278H193.07V144.479H237.745V143.278Z" fill="black"/>
<path opacity="0.15" d="M237.745 140.622H193.07V141.823H237.745V140.622Z" fill="black"/>
<path opacity="0.15" d="M237.745 137.93H193.07V139.13H237.745V137.93Z" fill="black"/>
<path opacity="0.15" d="M237.745 135.274H193.07V136.475H237.745V135.274Z" fill="black"/>
<path opacity="0.15" d="M237.745 132.583H193.07V133.784H237.745V132.583Z" fill="black"/>
<path opacity="0.15" d="M237.745 129.927H193.07V131.127H237.745V129.927Z" fill="black"/>
<path opacity="0.15" d="M237.745 127.236H193.07V128.437H237.745V127.236Z" fill="black"/>
<path opacity="0.15" d="M237.745 124.579H193.07V125.78H237.745V124.579Z" fill="black"/>
<path opacity="0.15" d="M237.745 121.923H193.07V123.123H237.745V121.923Z" fill="black"/>
<path opacity="0.15" d="M237.745 119.23H193.07V120.431H237.745V119.23Z" fill="black"/>
<path opacity="0.15" d="M190.562 116.539V154.484L191.18 154.411V116.539H190.562Z" fill="black"/>
<path opacity="0.15" d="M237.71 118.03V154.338L238.329 154.302V118.03H237.71Z" fill="black"/>
<path opacity="0.4" d="M221.884 152.52H214.826V153.174H221.884V152.52Z" fill="black"/>
<path d="M175.284 109.043H156.948V131.926H175.284V109.043Z" fill="white"/>
<path opacity="0.15" d="M175.208 109.008H174.698V131.891H175.208V109.008Z" fill="black"/>
<path d="M173.608 110.172H158.619V130.8H173.608V110.172Z" fill="#2DD555"/>
<path opacity="0.9" d="M173.608 110.172H158.619V130.8H173.608V110.172Z" fill="white"/>
<path d="M166.44 110.391H165.094V130.764H166.44V110.391Z" fill="white"/>
<path opacity="0.6" d="M158.657 125.488L169.754 110.172H173.537V114.065L161.059 130.727H158.657V125.488Z" fill="white"/>
<path opacity="0.15" d="M158.584 110.1H158.147V130.727H158.584V110.1Z" fill="black"/>
<path opacity="0.15" d="M166.441 110.354H166.004V130.763H166.441V110.354Z" fill="black"/>
<path d="M173.609 124.761H158.147V125.488H173.609V124.761Z" fill="white"/>
<path opacity="0.6" d="M167.715 130.727L173.609 123.414V128.398L171.353 130.799L167.715 130.727Z" fill="white"/>
<path opacity="0.6" d="M158.657 115.483L162.405 110.172H166.261L158.657 119.958V115.483Z" fill="white"/>
<path d="M42.0227 107.009H100.486L128.718 92.5654H70.2541L42.0227 107.009Z" fill="#111111"/>
<path opacity="0.2" d="M42.0227 107.009H100.486L128.718 92.5654H70.2541L42.0227 107.009Z" fill="white"/>
<path d="M100.483 107.009L100.956 110.901L129.188 96.4218L128.715 92.5654L100.483 107.009Z" fill="white"/>
<path opacity="0.1" d="M100.483 107.009L100.956 110.901L129.188 96.4218L128.715 92.5654L100.483 107.009Z" fill="black"/>
<path d="M100.814 107.006L100.959 110.899H42.4957L42.0227 107.006H100.814Z" fill="white"/>
<path d="M105.902 115.12H85.7112V151.501H105.902V115.12Z" fill="white"/>
<path d="M104.23 116.43H87.3853V151.61H104.23V116.43Z" fill="#111111"/>
<path opacity="0.2" d="M104.23 116.43H87.3853V151.61H104.23V116.43Z" fill="white"/>
<path d="M100.594 119.596H90.335V128H100.594V119.596Z" fill="#2DD555"/>
<path opacity="0.9" d="M100.594 119.596H90.335V128H100.594V119.596Z" fill="white"/>
<path opacity="0.15" d="M105.868 115.12H105.213V151.501H105.868V115.12Z" fill="black"/>
<path opacity="0.15" d="M87.3506 116.465H86.6958V151.499H87.3506V116.465Z" fill="black"/>
<path d="M101.686 133.965C102.148 133.965 102.523 133.591 102.523 133.129C102.523 132.667 102.148 132.292 101.686 132.292C101.224 132.292 100.85 132.667 100.85 133.129C100.85 133.591 101.224 133.965 101.686 133.965Z" fill="white"/>
<path opacity="0.15" d="M101.682 132.292C101.609 132.292 101.536 132.292 101.464 132.328C101.9 132.438 102.191 132.91 102.082 133.347C102.009 133.638 101.791 133.856 101.464 133.965C101.536 134.002 101.609 134.002 101.682 134.002C102.155 134.038 102.555 133.674 102.591 133.202C102.628 132.729 102.264 132.328 101.791 132.292C101.755 132.292 101.718 132.292 101.682 132.292Z" fill="black"/>
<path opacity="0.6" d="M90.335 123.707L93.4273 119.596H96.9199L90.335 127.927V123.707Z" fill="white"/>
<path opacity="0.15" d="M90.6624 119.485H90.335V127.889H90.6624V119.485Z" fill="black"/>
<path opacity="0.6" d="M94.3362 127.963L100.594 120.068V123.488L96.9192 127.963H94.3362Z" fill="white"/>
<path d="M138.207 151.537H44.1633V154.266H138.207V151.537Z" fill="#111111"/>
<path opacity="0.2" d="M138.207 151.537H44.1633V154.266H138.207V151.537Z" fill="white"/>
<path opacity="0.2" d="M138.246 151.537H107.25V154.266H138.246V151.537Z" fill="black"/>
<path d="M124.495 98.785V151.501H126.096H127.66H129.261V96.0928L124.495 98.785Z" fill="white"/>
<path d="M50.1329 110.9H46.9678V151.501H50.1329V110.9Z" fill="white"/>
<path d="M51.6971 110.9H48.532V151.501H51.6971V110.9Z" fill="white"/>
<path d="M88.0393 134.001H86.002V151.573H88.0393V134.001Z" fill="white"/>
<path opacity="0.1" d="M88.0787 134.001H87.0601V151.573H88.0787V134.001Z" fill="black"/>
<path d="M81.9658 134.001H79.9648V151.573H81.9658V134.001Z" fill="white"/>
<path opacity="0.1" d="M82.0765 134.001H80.9851V151.573H82.0765V134.001Z" fill="black"/>
<path d="M75.9255 134.001H73.9609V151.573H75.9255V134.001Z" fill="white"/>
<path opacity="0.1" d="M75.9635 134.001H74.8721V151.573H75.9635V134.001Z" fill="black"/>
<path d="M69.8884 134.001H67.9602V151.573H69.8884V134.001Z" fill="white"/>
<path opacity="0.1" d="M69.8846 134.001H68.866V151.573H69.8846V134.001Z" fill="black"/>
<path d="M63.8091 134.001H61.8809V151.573H63.8091V134.001Z" fill="white"/>
<path opacity="0.1" d="M63.8109 134.001H62.7922V151.573H63.8109V134.001Z" fill="black"/>
<path d="M57.7373 134.001H55.8091V151.573H57.7373V134.001Z" fill="white"/>
<path opacity="0.1" d="M57.775 134.001H56.7563V151.573H57.775V134.001Z" fill="black"/>
<path d="M94.9908 133.637H48.6418V135.456H94.9908V133.637Z" fill="white"/>
<path d="M94.9911 110.9H91.8259V151.501H94.9911V110.9Z" fill="white"/>
<path d="M96.5899 110.9H93.4248V151.501H96.5899V110.9Z" fill="white"/>
<path opacity="0.1" d="M127.116 151.502H129.262V95.9482L127.116 97.2943V151.502Z" fill="black"/>
<path opacity="0.1" d="M51.6992 110.9H49.3345V151.501H51.6992V110.9Z" fill="black"/>
<path opacity="0.1" d="M96.5559 110.9H94.4458V151.501H96.5559V110.9Z" fill="black"/>
<path d="M254.34 114.428H248.773V154.046H254.34V114.428Z" fill="#111111"/>
<path opacity="0.2" d="M254.34 114.428H248.773V154.046H254.34V114.428Z" fill="white"/>
<path d="M238.404 111.191C238.404 111.191 238.731 123.124 249.1 129.491L248.991 125.926C248.991 125.926 242.115 119.122 242.879 113.301L238.404 111.191Z" fill="#111111"/>
<path opacity="0.2" d="M238.404 111.191C238.404 111.191 238.731 123.124 249.1 129.491L248.991 125.926C248.991 125.926 242.115 119.122 242.879 113.301L238.404 111.191Z" fill="white"/>
<path d="M265.361 111.191C265.361 111.191 264.56 123.561 254.192 129.927L253.646 125.816C253.646 125.816 262.668 119.741 261.322 112.465L265.361 111.191Z" fill="#111111"/>
<path opacity="0.2" d="M265.361 111.191C265.361 111.191 264.56 123.561 254.192 129.927L253.646 125.816C253.646 125.816 262.668 119.741 261.322 112.465L265.361 111.191Z" fill="white"/>
<path opacity="0.2" d="M254.335 115.01H251.789V154.046H254.335V115.01Z" fill="black"/>
<path opacity="0.2" d="M240.402 112.646C240.402 112.646 241.639 123.306 248.806 127.272L248.769 125.744C248.769 125.744 242.548 119.595 242.767 113.556C242.039 113.192 241.239 112.901 240.402 112.646Z" fill="black"/>
<path opacity="0.2" d="M263.103 112.609C263.103 112.609 264.013 120.649 254.372 127.562L254.299 125.379C254.299 125.379 261.939 120.067 261.357 113.301L263.103 112.609Z" fill="black"/>
<path d="M277.112 93.6193C276.966 106.243 266.598 116.357 253.937 116.212C241.531 116.066 231.49 106.025 231.345 93.6193C231.345 80.9952 241.604 54.3281 254.228 54.3281C266.852 54.3281 277.112 80.9952 277.112 93.6193Z" fill="#2DD555"/>
<path opacity="0.4" d="M277.112 93.6193C276.966 106.243 266.598 116.357 253.937 116.212C241.531 116.066 231.49 106.025 231.345 93.6193C231.345 80.9952 241.604 54.3281 254.228 54.3281C266.852 54.3281 277.112 80.9952 277.112 93.6193Z" fill="white"/>
<path opacity="0.1" d="M268.815 66.332C268.852 67.0233 268.852 67.7145 268.852 68.4057C268.852 88.597 256.519 104.932 241.312 104.932C238.656 104.932 236 104.423 233.526 103.44C238.983 114.827 252.626 119.666 264.013 114.245C271.981 110.462 277.037 102.422 277.037 93.6175C277.11 86.5233 273.872 75.0634 268.815 66.332Z" fill="black"/>
<path opacity="0.05" d="M277.328 93.6923C277.328 81.1046 266.996 54.765 254.154 54.1465V116.721C266.996 116.467 277.328 106.244 277.328 93.6923Z" fill="black"/>
<path d="M280.06 106.025C279.841 113.738 273.402 119.777 265.689 119.559C258.086 119.341 252.083 113.083 252.156 105.48C252.301 97.767 258.886 81.6504 266.599 81.7959C274.312 81.9414 280.242 98.3491 280.06 106.025Z" fill="#2DD555"/>
<path opacity="0.4" d="M280.06 106.025C279.841 113.738 273.402 119.777 265.689 119.559C258.086 119.341 252.083 113.083 252.156 105.48C252.301 97.767 258.886 81.6504 266.599 81.7959C274.312 81.9414 280.242 98.3491 280.06 106.025Z" fill="white"/>
<path opacity="0.1" d="M275.366 89.29C275.366 89.7266 275.366 90.1268 275.366 90.5634C275.111 102.86 267.398 112.683 258.121 112.501C256.484 112.465 254.883 112.137 253.392 111.482C256.557 118.504 264.815 121.632 271.837 118.467C276.748 116.248 279.913 111.409 280.059 106.025C280.168 101.732 278.349 94.6744 275.366 89.29Z" fill="black"/>
<path opacity="0.05" d="M280.203 106.062C280.349 98.3855 274.382 82.1961 266.56 81.6504L265.796 119.814C273.618 119.85 280.058 113.738 280.203 106.062Z" fill="black"/>
<path d="M249.572 101.95C249.463 108.863 243.751 114.393 236.802 114.283C230.035 114.174 224.578 108.717 224.469 101.95C224.469 95.0381 230.072 80.4131 237.021 80.4131C243.969 80.4131 249.572 95.0017 249.572 101.95Z" fill="#2DD555"/>
<path opacity="0.4" d="M249.572 101.95C249.463 108.863 243.751 114.393 236.802 114.283C230.035 114.174 224.578 108.717 224.469 101.95C224.469 95.0381 230.072 80.4131 237.021 80.4131C243.969 80.4131 249.572 95.0017 249.572 101.95Z" fill="white"/>
<path opacity="0.1" d="M245.057 86.9971C245.057 87.3609 245.094 87.7611 245.094 88.1613C245.094 99.221 238.327 108.171 229.996 108.171C228.541 108.171 227.085 107.88 225.739 107.37C228.722 113.628 236.217 116.284 242.474 113.3C246.84 111.227 249.605 106.825 249.605 101.986C249.569 98.0568 247.822 91.7629 245.057 86.9971Z" fill="black"/>
<path opacity="0.05" d="M249.718 101.987C249.718 95.0743 244.042 80.6311 237.021 80.3037V114.611C244.042 114.465 249.718 108.863 249.718 101.987Z" fill="black"/>
<path d="M75.3804 157.612H98.4093L96.9177 158.267H72.9429L75.3804 157.612Z" fill="#2DD555"/>
<path d="M61.9204 161.25L88.5874 161.978L87.0958 162.632L59.4829 161.905L61.9204 161.25Z" fill="#2DD555"/>
<path d="M47.0059 165.617L79.13 166.345L77.6384 167L44.5684 166.272L47.0059 165.617Z" fill="#2DD555"/>
<path opacity="0.7" d="M75.3804 157.612H98.4093L96.9177 158.267H72.9429L75.3804 157.612Z" fill="white"/>
<path opacity="0.7" d="M61.9204 161.25L88.5874 161.978L87.0958 162.632L59.4829 161.905L61.9204 161.25Z" fill="white"/>
<path opacity="0.7" d="M47.0059 165.617L79.13 166.345L77.6384 167L44.5684 166.272L47.0059 165.617Z" fill="white"/>
<path d="M53.2622 33.8458C53.2622 33.8458 53.2986 33.8458 53.2622 33.8458L53.2986 30.426C53.2986 30.426 53.2986 30.3896 53.2622 30.3896C53.2258 30.3896 53.2258 30.3896 53.2258 30.426L53.2622 33.8458C53.2622 33.8458 53.2258 33.8458 53.2622 33.8458Z" fill="#F55A08"/>
<path d="M95.3154 9.36133H192.998L232.361 38.6478H139.955L95.3154 9.36133Z" fill="#111111"/>
<path d="M132.776 17.3745L131.964 13.3619L131.962 13.3533L129.259 0.000976562L102.986 0.00478426L106.503 17.3784L111.494 17.3774H111.54L117.125 17.3765H117.143L122.703 17.3755H122.741H128.289H128.339L132.776 17.3745Z" fill="#4D61FC"/>
<path opacity="0.2" d="M132.776 17.3745L131.964 13.3619L131.962 13.3533L129.259 0.000976562L102.986 0.00478426L106.503 17.3784L111.494 17.3774H111.54L117.125 17.3765H117.143L122.703 17.3755H122.741H128.289H128.339L132.776 17.3745Z" fill="black"/>
<path d="M132.781 17.0307L106.894 17.0345L103.429 0.00478426L129.315 0.000976562L132.781 17.0307Z" fill="#4D61FC"/>
<path opacity="0.2" d="M132.781 17.0307L106.894 17.0345L103.429 0.00478426L129.315 0.000976562L132.781 17.0307Z" fill="white"/>
<path d="M111.919 17.0822H111.772L111.764 17.0441L108.296 0.00292969H108.443L108.452 0.0410299L111.919 17.0822Z" fill="white"/>
<path d="M117.435 17.0812H117.288L117.281 17.0431L113.813 0.00192994L113.96 0.000976562L113.967 0.0400243L117.435 17.0812Z" fill="white"/>
<path d="M122.951 17.0802H122.805L122.797 17.0421L119.329 0.000976562H119.476L119.483 0.0390709L122.951 17.0802Z" fill="white"/>
<path d="M128.47 17.0793H128.324L128.315 17.0412L124.848 0L124.995 0L125.002 0.0381002L128.47 17.0793Z" fill="white"/>
<path d="M104.214 4.09204L104.184 3.95107L130.169 3.94727L130.198 4.08918L104.214 4.09204Z" fill="white"/>
<path d="M105.135 8.62229L105.106 8.48037L131.09 8.47656L131.119 8.61848L105.135 8.62229Z" fill="white"/>
<path d="M106.055 13.1487L106.026 13.0067L132.01 13.0029L132.04 13.1448L106.055 13.1487Z" fill="white"/>
<path d="M109.292 4.52348L108.657 4.0225L109.088 3.52246L109.723 4.0225L109.292 4.52348Z" fill="white"/>
<path d="M110.216 9.07329L109.582 8.5723L110.012 8.07227L110.648 8.5723L110.216 9.07329Z" fill="white"/>
<path d="M114.833 4.52251L114.198 4.02247L114.629 3.52148L115.264 4.02152L114.833 4.52251Z" fill="white"/>
<path d="M115.76 9.07329L115.125 8.57325L115.556 8.07227L116.191 8.5723L115.76 9.07329Z" fill="white"/>
<path d="M120.348 4.52055L119.713 4.02052L120.144 3.51953L120.779 4.02052L120.348 4.52055Z" fill="white"/>
<path d="M125.816 4.52055L125.181 4.02052L125.613 3.51953L126.247 4.02052L125.816 4.52055Z" fill="white"/>
<path d="M111.136 13.5792L110.5 13.0792L110.932 12.5781L111.566 13.0792L111.136 13.5792Z" fill="white"/>
<path d="M116.674 13.5772L116.04 13.0772L116.471 12.5762L117.106 13.0772L116.674 13.5772Z" fill="white"/>
<path d="M122.191 13.5762L121.557 13.0762L121.988 12.5752L122.623 13.0762L122.191 13.5762Z" fill="white"/>
<path d="M127.658 13.5752L127.023 13.0742L127.454 12.5732L128.089 13.0742L127.658 13.5752Z" fill="white"/>
<path d="M126.742 9.07133L126.106 8.5713L126.538 8.07031L127.172 8.5713L126.742 9.07133Z" fill="white"/>
<path d="M121.275 9.07231L120.64 8.57228L121.071 8.07129L121.705 8.57228L121.275 9.07231Z" fill="white"/>
<path d="M160.864 17.3745L160.052 13.3619L160.05 13.3533L157.347 0.000976562L131.075 0.00478426L134.591 17.3784L139.582 17.3774H139.629L145.214 17.3765H145.231L150.791 17.3755H150.829H156.377H156.428L160.864 17.3745Z" fill="#4D61FC"/>
<path opacity="0.2" d="M160.864 17.3745L160.052 13.3619L160.05 13.3533L157.347 0.000976562L131.075 0.00478426L134.591 17.3784L139.582 17.3774H139.629L145.214 17.3765H145.231L150.791 17.3755H150.829H156.377H156.428L160.864 17.3745Z" fill="black"/>
<path d="M160.87 17.0307L134.982 17.0345L131.517 0.00478426L157.404 0.000976562L160.87 17.0307Z" fill="#4D61FC"/>
<path opacity="0.2" d="M160.87 17.0307L134.982 17.0345L131.517 0.00478426L157.404 0.000976562L160.87 17.0307Z" fill="white"/>
<path d="M140.007 17.0822H139.86L139.853 17.0441L136.385 0.00292969H136.531L136.54 0.0410299L140.007 17.0822Z" fill="white"/>
<path d="M145.524 17.0812H145.377L145.369 17.0431L141.902 0.00192994L142.048 0.000976562L142.056 0.0400243L145.524 17.0812Z" fill="white"/>
<path d="M151.04 17.0802H150.894L150.886 17.0421L147.418 0.000976562H147.565L147.573 0.0390709L151.04 17.0802Z" fill="white"/>
<path d="M156.555 17.0793H156.409L156.4 17.0412L152.933 0L153.08 0L153.087 0.0381002L156.555 17.0793Z" fill="white"/>
<path d="M132.302 4.09204L132.272 3.95107L158.257 3.94727L158.286 4.08918L132.302 4.09204Z" fill="white"/>
<path d="M133.221 8.62229L133.193 8.48037L159.176 8.47656L159.205 8.61848L133.221 8.62229Z" fill="white"/>
<path d="M134.143 13.1487L134.115 13.0067L160.098 13.0029L160.128 13.1448L134.143 13.1487Z" fill="white"/>
<path d="M137.38 4.52348L136.746 4.0225L137.176 3.52246L137.811 4.0225L137.38 4.52348Z" fill="white"/>
<path d="M138.304 9.07329L137.67 8.5723L138.1 8.07227L138.736 8.5723L138.304 9.07329Z" fill="white"/>
<path d="M142.922 4.52251L142.286 4.02247L142.718 3.52148L143.353 4.02152L142.922 4.52251Z" fill="white"/>
<path d="M143.848 9.07329L143.214 8.57325L143.644 8.07227L144.28 8.5723L143.848 9.07329Z" fill="white"/>
<path d="M148.436 4.52055L147.801 4.02052L148.232 3.51953L148.867 4.02052L148.436 4.52055Z" fill="white"/>
<path d="M153.903 4.52055L153.269 4.02052L153.7 3.51953L154.334 4.02052L153.903 4.52055Z" fill="white"/>
<path d="M139.224 13.5792L138.589 13.0792L139.02 12.5781L139.654 13.0792L139.224 13.5792Z" fill="white"/>
<path d="M144.762 13.5772L144.127 13.0772L144.559 12.5762L145.193 13.0772L144.762 13.5772Z" fill="white"/>
<path d="M150.276 13.5762L149.642 13.0762L150.073 12.5752L150.708 13.0762L150.276 13.5762Z" fill="white"/>
<path d="M155.746 13.5752L155.112 13.0742L155.542 12.5732L156.177 13.0742L155.746 13.5752Z" fill="white"/>
<path d="M154.83 9.07133L154.195 8.5713L154.626 8.07031L155.26 8.5713L154.83 9.07133Z" fill="white"/>
<path d="M149.361 9.07231L148.727 8.57228L149.157 8.07129L149.791 8.57228L149.361 9.07231Z" fill="white"/>
<path d="M188.951 17.3745L188.138 13.3619L188.136 13.3533L185.433 0.000976562L159.161 0.00478426L162.677 17.3784L167.668 17.3774H167.715L173.3 17.3765H173.317L178.877 17.3755H178.916H184.464H184.514L188.951 17.3745Z" fill="#4D61FC"/>
<path opacity="0.2" d="M188.951 17.3745L188.138 13.3619L188.136 13.3533L185.433 0.000976562L159.161 0.00478426L162.677 17.3784L167.668 17.3774H167.715L173.3 17.3765H173.317L178.877 17.3755H178.916H184.464H184.514L188.951 17.3745Z" fill="black"/>
<path d="M188.956 17.0307L163.069 17.0345L159.604 0.00478426L185.49 0.000976562L188.956 17.0307Z" fill="#4D61FC"/>
<path opacity="0.2" d="M188.956 17.0307L163.069 17.0345L159.604 0.00478426L185.49 0.000976562L188.956 17.0307Z" fill="white"/>
<path d="M168.093 17.0822H167.947L167.939 17.0441L164.471 0.00292969H164.618L164.626 0.0410299L168.093 17.0822Z" fill="white"/>
<path d="M173.61 17.0812H173.463L173.456 17.0431L169.988 0.00192994L170.134 0.000976562L170.142 0.0400243L173.61 17.0812Z" fill="white"/>
<path d="M179.126 17.0802H178.979L178.972 17.0421L175.504 0.000976562H175.651L175.658 0.0390709L179.126 17.0802Z" fill="white"/>
<path d="M184.645 17.0793H184.498L184.49 17.0412L181.023 0L181.17 0L181.177 0.0381002L184.645 17.0793Z" fill="white"/>
<path d="M160.388 4.09204L160.359 3.95107L186.344 3.94727L186.372 4.08918L160.388 4.09204Z" fill="white"/>
<path d="M161.308 8.62229L161.279 8.48037L187.263 8.47656L187.291 8.61848L161.308 8.62229Z" fill="white"/>
<path d="M162.23 13.1487L162.201 13.0067L188.185 13.0029L188.214 13.1448L162.23 13.1487Z" fill="white"/>
<path d="M165.466 4.52348L164.832 4.0225L165.263 3.52246L165.898 4.0225L165.466 4.52348Z" fill="white"/>
<path d="M166.391 9.07329L165.756 8.5723L166.187 8.07227L166.822 8.5723L166.391 9.07329Z" fill="white"/>
<path d="M171.008 4.52251L170.373 4.02247L170.804 3.52148L171.439 4.02152L171.008 4.52251Z" fill="white"/>
<path d="M171.933 9.07329L171.299 8.57325L171.73 8.07227L172.365 8.5723L171.933 9.07329Z" fill="white"/>
<path d="M176.523 4.52055L175.887 4.02052L176.319 3.51953L176.953 4.02052L176.523 4.52055Z" fill="white"/>
<path d="M181.99 4.52055L181.356 4.02052L181.787 3.51953L182.422 4.02052L181.99 4.52055Z" fill="white"/>
<path d="M167.31 13.5773L166.675 13.0773L167.107 12.5762L167.741 13.0773L167.31 13.5773Z" fill="white"/>
<path d="M172.849 13.5772L172.215 13.0772L172.646 12.5762L173.28 13.0772L172.849 13.5772Z" fill="white"/>
<path d="M178.363 13.5762L177.729 13.0762L178.159 12.5752L178.794 13.0762L178.363 13.5762Z" fill="white"/>
<path d="M183.833 13.5752L183.198 13.0742L183.629 12.5732L184.264 13.0742L183.833 13.5752Z" fill="white"/>
<path d="M182.917 9.07133L182.281 8.5713L182.713 8.07031L183.347 8.5713L182.917 9.07133Z" fill="white"/>
<path d="M177.449 9.07231L176.815 8.57228L177.245 8.07129L177.88 8.57228L177.449 9.07231Z" fill="white"/>
<path d="M160.864 36.0992L160.051 32.0865L160.05 32.0779L157.346 18.7256L131.074 18.7294L134.591 36.103L139.581 36.102H139.628L145.213 36.1011H145.23L150.791 36.1001H150.829H156.377H156.427L160.864 36.0992Z" fill="#4D61FC"/>
<path opacity="0.2" d="M160.864 36.0992L160.051 32.0865L160.05 32.0779L157.346 18.7256L131.074 18.7294L134.591 36.103L139.581 36.102H139.628L145.213 36.1011H145.23L150.791 36.1001H150.829H156.377H156.427L160.864 36.0992Z" fill="black"/>
<path d="M160.869 35.7553L134.982 35.7591L131.517 18.7294L157.403 18.7256L160.869 35.7553Z" fill="#4D61FC"/>
<path opacity="0.2" d="M160.869 35.7553L134.982 35.7591L131.517 18.7294L157.403 18.7256L160.869 35.7553Z" fill="white"/>
<path d="M140.006 35.8068H139.86L139.852 35.7687L136.384 18.7275H136.531L136.54 18.7656L140.006 35.8068Z" fill="white"/>
<path d="M145.524 35.8058H145.377L145.369 35.7677L141.902 18.7265L142.048 18.7256L142.056 18.7646L145.524 35.8058Z" fill="white"/>
<path d="M151.04 35.8049H150.894L150.886 35.7668L147.418 18.7256H147.565L147.573 18.7637L151.04 35.8049Z" fill="white"/>
<path d="M156.555 35.8039H156.408L156.4 35.7658L152.933 18.7246H153.08L153.087 18.7627L156.555 35.8039Z" fill="white"/>
<path d="M132.302 22.8176L132.272 22.6767L158.257 22.6729L158.285 22.8148L132.302 22.8176Z" fill="white"/>
<path d="M133.221 27.3469L133.192 27.205L159.176 27.2012L159.204 27.3431L133.221 27.3469Z" fill="white"/>
<path d="M134.143 31.8733L134.114 31.7313L160.098 31.7275L160.127 31.8695L134.143 31.8733Z" fill="white"/>
<path d="M137.379 23.2481L136.745 22.7471L137.176 22.2471L137.811 22.7471L137.379 23.2481Z" fill="white"/>
<path d="M138.304 27.7989L137.67 27.2979L138.1 26.7979L138.735 27.2979L138.304 27.7989Z" fill="white"/>
<path d="M142.921 23.2471L142.286 22.7471L142.718 22.2461L143.353 22.7461L142.921 23.2471Z" fill="white"/>
<path d="M143.848 27.7989L143.214 27.2988L143.644 26.7979L144.279 27.2979L143.848 27.7989Z" fill="white"/>
<path d="M148.436 23.2452L147.801 22.7451L148.232 22.2441L148.867 22.7451L148.436 23.2452Z" fill="white"/>
<path d="M153.902 23.2452L153.268 22.7451L153.7 22.2441L154.334 22.7451L153.902 23.2452Z" fill="white"/>
<path d="M139.224 32.3038L138.588 31.8038L139.02 31.3027L139.654 31.8038L139.224 32.3038Z" fill="white"/>
<path d="M144.761 32.3018L144.127 31.8018L144.558 31.3008L145.193 31.8018L144.761 32.3018Z" fill="white"/>
<path d="M150.276 32.3008L149.642 31.8008L150.072 31.2998L150.708 31.8008L150.276 32.3008Z" fill="white"/>
<path d="M155.746 32.3008L155.112 31.7998L155.542 31.2988L156.177 31.7998L155.746 32.3008Z" fill="white"/>
<path d="M154.83 27.7959L154.194 27.2959L154.626 26.7949L155.26 27.2959L154.83 27.7959Z" fill="white"/>
<path d="M149.36 27.7969L148.726 27.2969L149.157 26.7959L149.791 27.2969L149.36 27.7969Z" fill="white"/>
<path d="M188.95 36.0992L188.138 32.0865L188.136 32.0779L185.433 18.7256L159.161 18.7294L162.677 36.103L167.668 36.102H167.715L173.3 36.1011H173.317L178.877 36.1001H178.915H184.463H184.514L188.95 36.0992Z" fill="#4D61FC"/>
<path opacity="0.2" d="M188.95 36.0992L188.138 32.0865L188.136 32.0779L185.433 18.7256L159.161 18.7294L162.677 36.103L167.668 36.102H167.715L173.3 36.1011H173.317L178.877 36.1001H178.915H184.463H184.514L188.95 36.0992Z" fill="black"/>
<path d="M188.956 35.7553L163.068 35.7591L159.603 18.7294L185.49 18.7256L188.956 35.7553Z" fill="#4D61FC"/>
<path opacity="0.2" d="M188.956 35.7553L163.068 35.7591L159.603 18.7294L185.49 18.7256L188.956 35.7553Z" fill="white"/>
<path d="M168.093 35.8068H167.946L167.939 35.7687L164.471 18.7275H164.617L164.626 18.7656L168.093 35.8068Z" fill="white"/>
<path d="M173.61 35.8058H173.463L173.455 35.7677L169.988 18.7265L170.134 18.7256L170.142 18.7646L173.61 35.8058Z" fill="white"/>
<path d="M179.126 35.8049H178.979L178.971 35.7668L175.503 18.7256H175.65L175.658 18.7637L179.126 35.8049Z" fill="white"/>
<path d="M184.645 35.8039H184.498L184.49 35.7658L181.023 18.7246H181.169L181.177 18.7627L184.645 35.8039Z" fill="white"/>
<path d="M160.388 22.8176L160.359 22.6767L186.343 22.6729L186.372 22.8148L160.388 22.8176Z" fill="white"/>
<path d="M161.307 27.3469L161.279 27.205L187.262 27.2012L187.291 27.3431L161.307 27.3469Z" fill="white"/>
<path d="M162.229 31.8733L162.201 31.7313L188.184 31.7275L188.214 31.8695L162.229 31.8733Z" fill="white"/>
<path d="M165.466 23.2481L164.832 22.7471L165.262 22.2471L165.897 22.7471L165.466 23.2481Z" fill="white"/>
<path d="M166.39 27.7989L165.756 27.2979L166.187 26.7979L166.822 27.2979L166.39 27.7989Z" fill="white"/>
<path d="M171.007 23.2471L170.372 22.7471L170.804 22.2461L171.439 22.7461L171.007 23.2471Z" fill="white"/>
<path d="M171.933 27.7989L171.299 27.2988L171.729 26.7979L172.364 27.2979L171.933 27.7989Z" fill="white"/>
<path d="M176.522 23.2452L175.887 22.7451L176.319 22.2441L176.953 22.7451L176.522 23.2452Z" fill="white"/>
<path d="M181.99 23.2452L181.356 22.7451L181.787 22.2441L182.422 22.7451L181.99 23.2452Z" fill="white"/>
<path d="M167.31 32.3019L166.675 31.8019L167.106 31.3008L167.741 31.8019L167.31 32.3019Z" fill="white"/>
<path d="M172.849 32.3018L172.214 31.8018L172.646 31.3008L173.28 31.8018L172.849 32.3018Z" fill="white"/>
<path d="M178.363 32.3008L177.728 31.8008L178.159 31.2998L178.794 31.8008L178.363 32.3008Z" fill="white"/>
<path d="M183.832 32.3008L183.198 31.7998L183.629 31.2988L184.264 31.7998L183.832 32.3008Z" fill="white"/>
<path d="M182.916 27.7959L182.281 27.2959L182.712 26.7949L183.347 27.2959L182.916 27.7959Z" fill="white"/>
<path d="M177.449 27.7969L176.815 27.2969L177.245 26.7959L177.88 27.2969L177.449 27.7969Z" fill="white"/>
<path d="M217.041 36.0992L216.228 32.0865L216.227 32.0779L213.523 18.7256L187.251 18.7294L190.768 36.103L195.758 36.102H195.805L201.39 36.1011H201.407L206.968 36.1001H207.006H212.554H212.604L217.041 36.0992Z" fill="#4D61FC"/>
<path opacity="0.2" d="M217.041 36.0992L216.228 32.0865L216.227 32.0779L213.523 18.7256L187.251 18.7294L190.768 36.103L195.758 36.102H195.805L201.39 36.1011H201.407L206.968 36.1001H207.006H212.554H212.604L217.041 36.0992Z" fill="black"/>
<path d="M217.046 35.7553L191.159 35.7591L187.694 18.7294L213.58 18.7256L217.046 35.7553Z" fill="#4D61FC"/>
<path opacity="0.2" d="M217.046 35.7553L191.159 35.7591L187.694 18.7294L213.58 18.7256L217.046 35.7553Z" fill="white"/>
<path d="M196.183 35.8068H196.037L196.029 35.7687L192.561 18.7275H192.708L192.717 18.7656L196.183 35.8068Z" fill="white"/>
<path d="M201.7 35.8058H201.554L201.546 35.7677L198.078 18.7265L198.225 18.7256L198.232 18.7646L201.7 35.8058Z" fill="white"/>
<path d="M207.217 35.8049H207.071L207.063 35.7668L203.595 18.7256H203.742L203.75 18.7637L207.217 35.8049Z" fill="white"/>
<path d="M212.736 35.8039H212.59L212.581 35.7658L209.114 18.7246H209.261L209.269 18.7627L212.736 35.8039Z" fill="white"/>
<path d="M188.479 22.8176L188.449 22.6767L214.434 22.6729L214.462 22.8148L188.479 22.8176Z" fill="white"/>
<path d="M189.398 27.3469L189.369 27.205L215.353 27.2012L215.381 27.3431L189.398 27.3469Z" fill="white"/>
<path d="M190.32 31.8733L190.291 31.7313L216.275 31.7275L216.304 31.8695L190.32 31.8733Z" fill="white"/>
<path d="M193.556 23.2481L192.922 22.7471L193.353 22.2471L193.988 22.7471L193.556 23.2481Z" fill="white"/>
<path d="M194.481 27.7989L193.846 27.2979L194.277 26.7979L194.912 27.2979L194.481 27.7989Z" fill="white"/>
<path d="M199.098 23.2471L198.463 22.7471L198.894 22.2461L199.529 22.7461L199.098 23.2471Z" fill="white"/>
<path d="M200.024 27.7989L199.39 27.2988L199.821 26.7979L200.456 27.2979L200.024 27.7989Z" fill="white"/>
<path d="M204.613 23.2452L203.977 22.7451L204.409 22.2441L205.043 22.7451L204.613 23.2452Z" fill="white"/>
<path d="M210.08 23.2452L209.446 22.7451L209.877 22.2441L210.512 22.7451L210.08 23.2452Z" fill="white"/>
<path d="M195.401 32.3019L194.765 31.8019L195.197 31.3008L195.831 31.8019L195.401 32.3019Z" fill="white"/>
<path d="M200.939 32.3018L200.305 31.8018L200.736 31.3008L201.371 31.8018L200.939 32.3018Z" fill="white"/>
<path d="M206.453 32.3008L205.819 31.8008L206.249 31.2998L206.884 31.8008L206.453 32.3008Z" fill="white"/>
<path d="M211.922 32.3008L211.288 31.7998L211.719 31.2988L212.354 31.7998L211.922 32.3008Z" fill="white"/>
<path d="M211.007 27.7959L210.371 27.2959L210.803 26.7949L211.437 27.2959L211.007 27.7959Z" fill="white"/>
<path d="M205.54 27.7969L204.905 27.2969L205.336 26.7959L205.97 27.2969L205.54 27.7969Z" fill="white"/>
<path d="M60.8593 96.9556L61.6717 92.9429L61.6736 92.9344L64.3766 79.582L90.6489 79.5858L87.1325 96.9594L82.1417 96.9585H82.095L76.5099 96.9575H76.4927L70.9323 96.9566H70.8942H65.3462H65.2958L60.8593 96.9556Z" fill="#4D61FC"/>
<path opacity="0.2" d="M60.8593 96.9556L61.6717 92.9429L61.6736 92.9344L64.3766 79.582L90.6489 79.5858L87.1325 96.9594L82.1417 96.9585H82.095L76.5099 96.9575H76.4927L70.9323 96.9566H70.8942H65.3462H65.2958L60.8593 96.9556Z" fill="black"/>
<path d="M60.8538 96.6118L86.7413 96.6156L90.2063 79.5858L64.3198 79.582L60.8538 96.6118Z" fill="#4D61FC"/>
<path opacity="0.2" d="M60.8538 96.6118L86.7413 96.6156L90.2063 79.5858L64.3198 79.582L60.8538 96.6118Z" fill="white"/>
<path d="M81.7165 96.6623H81.8631L81.8708 96.6242L85.3386 79.583H85.1919L85.1834 79.6211L81.7165 96.6623Z" fill="white"/>
<path d="M76.1999 96.6623H76.3465L76.3542 96.6242L79.822 79.583L79.6753 79.582L79.6677 79.6211L76.1999 96.6623Z" fill="white"/>
<path d="M70.6838 96.6613H70.8304L70.8381 96.6232L74.3059 79.582H74.1592L74.1516 79.6201L70.6838 96.6613Z" fill="white"/>
<path d="M65.1647 96.6593H65.3114L65.32 96.6212L68.7869 79.5801H68.6402L68.6326 79.6182L65.1647 96.6593Z" fill="white"/>
<path d="M89.4214 83.6731L89.4509 83.5321L63.4663 83.5283L63.4377 83.6702L89.4214 83.6731Z" fill="white"/>
<path d="M88.5022 88.2024L88.5308 88.0604L62.5471 88.0566L62.5185 88.1986L88.5022 88.2024Z" fill="white"/>
<path d="M87.5801 92.7297L87.6086 92.5878L61.625 92.584L61.5954 92.7259L87.5801 92.7297Z" fill="white"/>
<path d="M84.3437 84.1036L84.978 83.6026L84.5475 83.1025L83.9122 83.6026L84.3437 84.1036Z" fill="white"/>
<path d="M83.4191 88.6543L84.0535 88.1534L83.623 87.6533L82.9877 88.1534L83.4191 88.6543Z" fill="white"/>
<path d="M78.8022 84.1026L79.4375 83.6026L79.006 83.1016L78.3708 83.6016L78.8022 84.1026Z" fill="white"/>
<path d="M77.8754 88.6543L78.5098 88.1543L78.0793 87.6533L77.444 88.1534L77.8754 88.6543Z" fill="white"/>
<path d="M73.2871 84.1006L73.9224 83.6006L73.4909 83.0996L72.8566 83.6006L73.2871 84.1006Z" fill="white"/>
<path d="M67.8195 84.1006L68.4539 83.6006L68.0224 83.0996L67.3881 83.6006L67.8195 84.1006Z" fill="white"/>
<path d="M82.4992 93.1583L83.1345 92.6583L82.7031 92.1572L82.0687 92.6583L82.4992 93.1583Z" fill="white"/>
<path d="M76.9609 93.1582L77.5952 92.6582L77.1638 92.1572L76.5294 92.6582L76.9609 93.1582Z" fill="white"/>
<path d="M71.4467 93.1563L72.0811 92.6563L71.6505 92.1553L71.0153 92.6563L71.4467 93.1563Z" fill="white"/>
<path d="M65.9772 93.1563L66.6116 92.6553L66.1811 92.1543L65.5458 92.6553L65.9772 93.1563Z" fill="white"/>
<path d="M66.8935 88.6514L67.5288 88.1514L67.0973 87.6504L66.463 88.1514L66.8935 88.6514Z" fill="white"/>
<path d="M72.3605 88.6524L72.9949 88.1524L72.5644 87.6514L71.93 88.1524L72.3605 88.6524Z" fill="white"/>
<path d="M91.2899 96.9556L92.1024 92.9429L92.1043 92.9344L94.8073 79.582L121.08 79.5858L117.563 96.9594L112.572 96.9585H112.526L106.941 96.9575H106.923L101.363 96.9566H101.325H95.7769H95.7264L91.2899 96.9556Z" fill="#4D61FC"/>
<path opacity="0.2" d="M91.2899 96.9556L92.1024 92.9429L92.1043 92.9344L94.8073 79.582L121.08 79.5858L117.563 96.9594L112.572 96.9585H112.526L106.941 96.9575H106.923L101.363 96.9566H101.325H95.7769H95.7264L91.2899 96.9556Z" fill="black"/>
<path d="M91.2845 96.6118L117.172 96.6156L120.637 79.5858L94.7504 79.582L91.2845 96.6118Z" fill="#4D61FC"/>
<path opacity="0.2" d="M91.2845 96.6118L117.172 96.6156L120.637 79.5858L94.7504 79.582L91.2845 96.6118Z" fill="white"/>
<path d="M112.148 96.6623H112.294L112.302 96.6242L115.77 79.583H115.623L115.615 79.6211L112.148 96.6623Z" fill="white"/>
<path d="M106.631 96.6623H106.777L106.785 96.6242L110.253 79.583L110.106 79.582L110.098 79.6211L106.631 96.6623Z" fill="white"/>
<path d="M101.115 96.6613H101.262L101.269 96.6232L104.737 79.582H104.59L104.583 79.6201L101.115 96.6613Z" fill="white"/>
<path d="M95.5959 96.6593H95.7425L95.7511 96.6212L99.218 79.5801H99.0713L99.0637 79.6182L95.5959 96.6593Z" fill="white"/>
<path d="M119.852 83.6731L119.882 83.5321L93.8972 83.5283L93.8686 83.6702L119.852 83.6731Z" fill="white"/>
<path d="M118.931 88.2024L118.96 88.0604L92.976 88.0566L92.9475 88.1986L118.931 88.2024Z" fill="white"/>
<path d="M118.011 92.7297L118.04 92.5878L92.0559 92.584L92.0263 92.7259L118.011 92.7297Z" fill="white"/>
<path d="M114.775 84.1036L115.409 83.6026L114.978 83.1025L114.343 83.6026L114.775 84.1036Z" fill="white"/>
<path d="M113.85 88.6543L114.484 88.1534L114.054 87.6533L113.419 88.1534L113.85 88.6543Z" fill="white"/>
<path d="M109.233 84.1026L109.868 83.6026L109.437 83.1016L108.801 83.6016L109.233 84.1026Z" fill="white"/>
<path d="M108.307 88.6543L108.942 88.1543L108.511 87.6533L107.876 88.1534L108.307 88.6543Z" fill="white"/>
<path d="M103.718 84.1006L104.354 83.6006L103.922 83.0996L103.288 83.6006L103.718 84.1006Z" fill="white"/>
<path d="M98.2507 84.1006L98.885 83.6006L98.4535 83.0996L97.8192 83.6006L98.2507 84.1006Z" fill="white"/>
<path d="M112.93 93.1593L113.565 92.6593L113.134 92.1582L112.5 92.6593L112.93 93.1593Z" fill="white"/>
<path d="M107.392 93.1582L108.026 92.6582L107.594 92.1572L106.96 92.6582L107.392 93.1582Z" fill="white"/>
<path d="M101.875 93.1563L102.509 92.6563L102.079 92.1553L101.443 92.6563L101.875 93.1563Z" fill="white"/>
<path d="M96.4084 93.1563L97.0427 92.6553L96.6122 92.1543L95.9769 92.6553L96.4084 93.1563Z" fill="white"/>
<path d="M97.3242 88.6514L97.9595 88.1514L97.528 87.6504L96.8937 88.1514L97.3242 88.6514Z" fill="white"/>
<path d="M102.791 88.6524L103.426 88.1524L102.995 87.6514L102.361 88.1524L102.791 88.6524Z" fill="white"/>
</svg>
