<svg width="32" height="56" viewBox="0 0 32 56" fill="none" xmlns="http://www.w3.org/2000/svg">
<path fill-rule="evenodd" clip-rule="evenodd" d="M7.94667 35.0258L24.0478 35.0149C24.92 35.0138 25.6367 35.7188 25.6378 36.5769L25.6422 42.003C25.6422 42.8611 24.9267 43.5661 24.0544 43.5672L7.95222 43.5781C7.08 43.5792 6.36333 42.8753 6.36222 42.0172L6.35778 36.59C6.35778 35.7331 7.07333 35.0258 7.94667 35.0258ZM5.69667 0H26.3033C27.8744 0 29.2911 0.629619 30.3289 1.644C31.36 2.65839 32 4.05864 32 5.60317V50.3968C32 51.9425 31.36 53.3361 30.3289 54.356C29.2978 55.3715 27.8744 56 26.3033 56H5.69667C4.12556 56 2.70889 55.3715 1.67111 54.356C0.64 53.3416 0 51.9425 0 50.3968V5.60317C0 4.05864 0.64 2.66386 1.67111 1.644C2.70333 0.629619 4.13111 0 5.69667 0ZM17.6222 14.7687H21.9811V19.0394H17.6222V14.7687ZM10.82 11.4228H8.93778C7.54445 11.4228 6.39889 12.5497 6.39889 13.9205V16.0946H7.52444V13.9205C7.52444 13.1564 8.16 12.5312 8.93778 12.5312H10.82V11.4228ZM23.0611 11.4228H21.6622V12.5312H23.0611C23.84 12.5312 24.4733 13.1564 24.4733 13.9205V16.0946H25.6011V13.9205C25.6011 12.5497 24.4567 11.4228 23.0611 11.4228ZM25.6011 27.3993V25.0437H24.4733V27.3993C24.4733 28.1645 23.8356 28.7919 23.0611 28.7919H21.6622V29.9014H23.0611C24.4656 29.9014 25.6011 28.7679 25.6011 27.3993ZM8.93778 29.9014H10.82V28.7919H8.93778C8.16111 28.7919 7.52444 28.1645 7.52444 27.3993V25.0437H6.39889V27.3993C6.39889 28.7755 7.54222 29.9014 8.93778 29.9014ZM10.0189 14.7687H14.3756V19.0394H10.0189V14.7687ZM11.0767 15.8071H13.3178V18.0032H11.0767V15.8071ZM20.8878 25.481H22V26.5566H20.8878V25.481ZM18.7533 25.4799H19.8644V26.5041H17.6422V24.4076H18.7178V23.3451H19.8122V21.2267H20.9233V22.2684H21.9822V23.344H20.9233V24.4196H18.7533V25.4799ZM15.4522 23.3276H16.53V22.2531H15.4878V21.1753H16.53V20.0997H15.47V21.1753H14.3589V20.0997H15.4522V16.9057H16.5633V20.0997H17.6389V21.1753H18.6989V20.0997H19.81V21.1753H18.7533V22.2509H17.6422V24.3682H16.5644V26.5052H15.4522V23.3276ZM20.87 20.0997H21.9811V21.1753H20.87V20.0997ZM12.1889 20.0997H13.3V21.1753H12.1889V20.0997ZM10.0189 20.0997H11.13V21.1753H10.0189V20.0997ZM15.4522 14.7687H16.5644V15.8454H15.4522V14.7687ZM10.0011 22.2684H14.3589V26.5391H10.0011V22.2684ZM11.0589 23.3068H13.3V25.5028H11.0589V23.3068ZM18.6822 15.8071H20.9233V18.0032H18.6822V15.8071ZM16 49.9028C17.2856 49.9028 18.3322 50.9324 18.3322 52.1971C18.3322 53.4608 17.2856 54.4915 16 54.4915C14.7144 54.4915 13.6667 53.4608 13.6667 52.1971C13.6667 50.9324 14.71 49.9028 16 49.9028ZM1.64 48.1429H30.3656V7.04495H1.64V48.1429ZM12.4078 40.3404H11.5533V41.3165H10.24V37.2776H12.3089C13.25 37.2776 13.7211 37.7749 13.7211 38.7707C13.7211 39.3173 13.5978 39.7239 13.3533 39.9852C13.2622 40.0835 13.1333 40.1688 12.9722 40.2366C12.8111 40.3043 12.6211 40.3404 12.4078 40.3404ZM11.5533 38.3116V39.3064H11.8556C12.0133 39.3064 12.1289 39.2889 12.2 39.2583C12.2711 39.2266 12.3089 39.1511 12.3089 39.0353V38.5827C12.3089 38.4669 12.2722 38.3903 12.2 38.3597C12.1289 38.328 12.0122 38.3116 11.8556 38.3116H11.5533ZM15.3389 41.3165H13.9533L15.0178 37.2776H17.0478L18.1111 41.3165H16.7256L16.5744 40.676H15.49L15.3389 41.3165ZM15.9956 38.5182L15.7267 39.6496H16.3311L16.0689 38.5182H15.9956ZM19.5333 37.2776L19.8944 38.6986H19.94L20.3078 37.2776H21.76L20.5778 40.2169V41.3165H19.2633V40.2169L18.0811 37.2776H19.5333Z" fill="#3E67E9"/>
</svg>
