<svg width="52" height="56" viewBox="0 0 52 56" fill="none" xmlns="http://www.w3.org/2000/svg">
<g clip-path="url(#clip0_880_8734)">
<path fill-rule="evenodd" clip-rule="evenodd" d="M40.9617 38.5216C47.277 40.2916 51.3333 43.1197 51.3333 46.3086C51.3333 51.6619 39.8444 56.0003 25.6691 56.0003C11.4938 56.0003 0 51.6619 0 46.3086C0 43.0428 4.27009 40.1569 10.8185 38.4014L11.5375 39.3633C12.0233 40.0223 12.5722 40.6764 13.1212 41.3161C8.54017 42.4127 5.60601 44.1057 5.60601 46.0056C5.60601 49.3147 14.4911 51.9986 25.4553 51.9986C36.4196 51.9986 45.3047 49.3147 45.3047 46.0056C45.3047 44.2404 42.7592 42.6388 38.7174 41.5518C39.5141 40.5898 40.2622 39.5605 40.9617 38.5216Z" fill="#BBCAFF"/>
<path fill-rule="evenodd" clip-rule="evenodd" d="M32.5351 36.8683C30.752 38.8006 28.6979 40.4731 26.435 41.8354C26.2937 41.9374 26.1241 41.9947 25.9489 41.9996C25.7737 42.0046 25.6011 41.957 25.454 41.8632C22.2266 39.8612 19.3612 37.3438 16.976 34.4145C13.8876 30.6028 11.9215 26.3703 11.2554 22.2925C10.5892 18.2148 11.2109 14.1847 13.3022 10.9527C14.152 9.63776 15.2206 8.47271 16.4633 7.50631C19.4104 5.1915 22.7693 3.97652 26.1363 4.00034C28.4825 4.06379 30.7754 4.70286 32.8067 5.85948C34.8379 7.01609 36.5431 8.6536 37.7673 10.6232C40.0159 14.2641 40.5004 18.9097 39.5153 23.6147C38.4223 28.5588 36.0134 33.1285 32.5351 36.8564V36.8683ZM25.4984 11.3498C26.9262 11.3498 28.322 11.7662 29.5091 12.5465C30.6963 13.3268 31.6215 14.4358 32.1677 15.7332C32.7139 17.0307 32.8566 18.4583 32.5778 19.8355C32.2989 21.2128 31.6111 22.4777 30.6011 23.4704C29.5912 24.4631 28.3046 25.139 26.9041 25.4124C25.5036 25.6859 24.0521 25.5448 22.7332 25.0068C21.4143 24.4689 20.2872 23.5583 19.4945 22.3903C18.7019 21.2223 18.2792 19.8494 18.28 18.4451C18.28 17.513 18.4667 16.59 18.8295 15.7289C19.1923 14.8678 19.7241 14.0855 20.3944 13.4265C21.0648 12.7676 21.8606 12.2451 22.7363 11.8887C23.6121 11.5324 24.5506 11.3493 25.4984 11.3498Z" fill="#3E67E9"/>
</g>
<defs>
<clipPath id="clip0_880_8734">
<rect width="51.3333" height="56" fill="white"/>
</clipPath>
</defs>
</svg>
