<svg width="43" height="34" viewBox="0 0 43 34" fill="none" xmlns="http://www.w3.org/2000/svg">
<path fill-rule="evenodd" clip-rule="evenodd" d="M4.26921 0H38.7308C39.8625 0.00184325 40.9473 0.450417 41.7475 1.24743C42.5478 2.04444 42.9981 3.1249 43 4.25204V23.7696C42.9981 24.8967 42.5478 25.9772 41.7475 26.7742C40.9473 27.5712 39.8625 28.0198 38.7308 28.0216H32.0015C32.1034 27.7485 32.1876 27.4691 32.2535 27.1852C32.336 26.8404 32.3991 26.4914 32.4425 26.1396H38.1009C38.8506 26.1368 39.5687 25.8388 40.0984 25.3105C40.6282 24.7822 40.9265 24.0666 40.9284 23.32V4.87939C40.9256 4.13336 40.6268 3.41867 40.0972 2.89115C39.5675 2.36362 38.85 2.06604 38.1009 2.06329H4.58765C3.03044 2.07026 2.07861 3.3389 2.07861 4.87939V23.2956C2.08044 24.041 2.37786 24.7556 2.9061 25.2837C3.43435 25.8117 4.15066 26.1106 4.89909 26.1152H5.77743C5.9675 26.1286 6.14452 26.2164 6.26976 26.3595C6.39501 26.5025 6.4583 26.6891 6.4458 26.8785L6.37931 30.5241L11.0369 26.3208C11.1037 26.2539 11.1834 26.2012 11.2712 26.1658C11.359 26.1305 11.4532 26.1133 11.5479 26.1152H13.1715V26.1501C13.3622 26.7877 13.6276 27.4007 13.9624 27.9763H12.2827L5.80192 33.5737C5.73129 33.6368 5.64851 33.685 5.55862 33.7152C5.46872 33.7455 5.37359 33.7572 5.279 33.7497C5.1844 33.7422 5.09233 33.7157 5.00837 33.6716C4.92441 33.6276 4.85032 33.567 4.79061 33.4935C4.72968 33.4242 4.68316 33.3435 4.65373 33.2562C4.6243 33.1689 4.61254 33.0766 4.61914 32.9847L4.3252 28.0216H4.26921C3.1384 28.0189 2.05465 27.5705 1.25471 26.7744C0.454783 25.9784 0.00369509 24.8993 0 23.7731L0 4.25553C0.000925082 3.12778 0.450901 2.04643 1.25123 1.24866C2.05156 0.450898 3.1369 0.00184537 4.26921 0V0ZM12.5032 16.224C12.4964 16.3382 12.455 16.4477 12.3844 16.5379C12.3138 16.6282 12.2173 16.6949 12.1077 16.7293C11.6726 16.8473 11.2214 16.8955 10.771 16.8722C10.2291 16.8834 9.6881 16.8248 9.1613 16.698C8.73088 16.5795 8.51742 16.4296 8.51742 16.2484C8.51742 16.0671 8.90234 14.7148 9.6757 12.2717C10.4491 9.82849 10.8935 8.41695 11.0055 8.04402C11.0474 7.9325 11.3974 7.84188 12.0553 7.7652C12.7526 7.69056 13.4535 7.65449 14.1549 7.65716C14.9072 7.65716 15.3201 7.78611 15.4006 8.04402C17.0337 13.4811 17.8502 16.2426 17.8502 16.3285C17.845 16.3805 17.8282 16.4307 17.8009 16.4753C17.7737 16.52 17.7367 16.558 17.6927 16.5864C17.4478 16.7781 16.9683 16.8722 16.2475 16.8722C14.7078 16.8722 13.9239 16.691 13.8889 16.3285L13.7944 15.4816H12.5697L12.5032 16.21V16.224ZM13.553 13.0315L13.357 10.6963H13.0736L12.8496 13.0315H13.553ZM22.1509 17.0047C20.7091 17.0047 19.6593 16.8653 19.0015 16.5864C18.6515 16.4401 18.4941 16.2972 18.4941 16.1612C18.5128 15.7287 18.6187 15.3044 18.8055 14.9135C19.0155 14.436 19.1974 14.2165 19.3549 14.2165C19.6567 14.2815 19.951 14.3773 20.2332 14.5022C20.6338 14.6719 21.0617 14.7687 21.4965 14.788C21.7249 14.8022 21.9541 14.7798 22.1754 14.7218C22.2269 14.7042 22.2711 14.6699 22.3009 14.6245C22.3306 14.579 22.3444 14.525 22.3398 14.4709C22.3398 14.3454 22.2524 14.2443 22.0774 14.1711C21.8687 14.0905 21.6495 14.0401 21.4265 14.0213C21.1429 13.9925 20.8621 13.9412 20.5867 13.8679C20.2973 13.7928 20.0151 13.6925 19.7433 13.5682C19.4722 13.4345 19.246 13.2249 19.0924 12.9652C18.9236 12.6916 18.834 12.3768 18.8335 12.0556C18.8335 11.7315 18.8335 11.4875 18.858 11.3272C18.8993 11.0942 18.9723 10.8679 19.075 10.6545C19.1925 10.3824 19.3751 10.1431 19.6069 9.95744C19.9207 9.72516 20.2722 9.54832 20.6462 9.43465C21.1724 9.28219 21.7184 9.2082 22.2664 9.21508C22.8682 9.21508 23.3687 9.23599 23.7746 9.27433C24.0997 9.29337 24.4227 9.33883 24.7404 9.41025C24.9362 9.45844 25.1262 9.52738 25.3073 9.61589C25.5557 9.74484 25.6852 9.88774 25.6852 10.0446C25.6628 10.4583 25.5365 10.8597 25.3178 11.2121C25.0763 11.6548 24.8804 11.8743 24.7404 11.8743C24.4184 11.8394 24.1014 11.7681 23.7956 11.6617C23.4575 11.5394 23.1044 11.4632 22.7458 11.4352C22.3958 11.4352 22.1964 11.5398 22.1964 11.7454C22.1964 11.8743 22.3223 11.9719 22.5673 12.0382C22.8123 12.1044 23.1132 12.1706 23.4596 12.2403C23.8159 12.3123 24.1667 12.409 24.5094 12.5296C24.8719 12.6681 25.1849 12.9107 25.4088 13.2266C25.6674 13.5903 25.7978 14.0291 25.7797 14.4744C25.7797 16.1682 24.5678 17.0163 22.1439 17.0186L22.1509 17.0047ZM30.2344 16.576C30.2344 16.6701 29.9929 16.7468 29.5065 16.8025C29 16.8594 28.4906 16.8873 27.9808 16.8862C27.6363 16.9009 27.2913 16.8776 26.952 16.8165C26.7945 16.7677 26.7175 16.6875 26.7175 16.576V7.59094C26.7175 7.40273 26.9625 7.21453 27.4524 7.03329C27.9624 6.84814 28.5018 6.75605 29.0446 6.76144C29.8424 6.76144 30.2414 6.9601 30.2414 7.35743V12.1985H30.4128C30.8293 10.2188 31.1372 9.22553 31.3367 9.22553C31.96 9.24703 32.5762 9.3646 33.1633 9.57406C33.8632 9.80758 34.2131 10.0655 34.2131 10.3513C34.1236 10.7812 33.9461 11.1881 33.6917 11.5467C33.3949 12.0708 33.0315 12.5546 32.6104 12.9862C33.8515 14.4686 34.4721 15.348 34.4721 15.6245C34.4721 15.8824 34.0767 16.1996 33.2858 16.569C32.7703 16.8573 32.2055 17.0475 31.6201 17.1301C31.4626 17.1301 31.2982 16.9385 31.1232 16.5655C30.8919 16.0154 30.7046 15.4478 30.5633 14.8682L30.2134 15.2725V16.5586L30.2344 16.576Z" fill="#3E67E9"/>
</svg>
