<svg width="56" height="56" viewBox="0 0 56 56" fill="none" xmlns="http://www.w3.org/2000/svg">
<path d="M32.1825 1.87441C32.1825 0.842444 33.1997 0 34.4641 0C35.7295 0 36.7467 0.838062 36.7467 1.87441V10.0743C36.7467 11.1062 35.7295 11.9487 34.4641 11.9487C33.1997 11.9487 32.1825 11.1106 32.1825 10.0743V1.87441ZM37.683 38.8882C37.688 38.7335 37.7399 38.5839 37.8317 38.4593C37.9235 38.3347 38.0509 38.2409 38.197 38.1904C38.162 37.5868 38.0888 36.6797 38.2517 36.0991C38.4378 35.4905 38.8443 34.9736 39.3914 34.6497C39.585 34.5303 39.795 34.4295 40.0094 34.3528C40.4042 34.2115 40.2084 33.5498 40.6383 33.5411C41.6412 33.5148 43.2895 34.435 43.9327 35.1329C44.3439 35.5864 44.5769 36.1725 44.59 36.7849L44.5495 38.2583C44.742 38.2978 44.9006 38.4347 44.9706 38.6187C45.185 39.4853 43.0762 41.5317 43.0762 41.7519C43.0817 41.8275 43.1102 41.8987 43.1605 41.9567C44.6228 43.9714 48.9245 42.8452 48.9245 46.8526H33.7236C33.7236 42.8441 38.0253 43.9725 39.4888 41.9589C39.5598 41.8527 39.5938 41.7946 39.5927 41.7486C39.5927 41.5525 37.683 39.5959 37.683 38.8882ZM41.3241 26.0851C45.3688 26.0851 49.0416 27.7327 51.6972 30.3959C54.355 33.0514 56 36.7268 56 40.7868C56 44.8423 54.3572 48.5221 51.7016 51.1809L51.6272 51.251C48.977 53.8671 45.3381 55.4862 41.3241 55.4862C37.2783 55.4862 33.6066 53.8386 30.9509 51.1809C28.2931 48.5166 26.6481 44.839 26.6481 40.7868C26.6481 36.7268 28.2931 33.0514 30.9477 30.3926L31.0231 30.3225C33.6744 27.7042 37.3155 26.0851 41.3241 26.0851ZM49.9362 32.1553C47.7389 29.9522 44.6906 28.5861 41.3241 28.5861C37.9881 28.5861 34.965 29.9281 32.772 32.095L32.7119 32.1596C30.5091 34.366 29.1441 37.4181 29.1441 40.7868C29.1441 44.1565 30.5091 47.2119 32.7086 49.416C34.9092 51.6191 37.9586 52.9863 41.3241 52.9863C44.6589 52.9863 47.6809 51.6432 49.8783 49.4774L49.9373 49.4139C52.1413 47.2064 53.5041 44.1554 53.5041 40.7868C53.5041 37.4181 52.1402 34.366 49.9362 32.1553ZM6.21359 26.5419C6.08453 26.5419 5.96859 25.9722 5.96859 25.2755C5.96859 24.5755 6.07141 24.0113 6.21359 24.0113H12.4414C12.5716 24.0113 12.6875 24.5809 12.6875 25.2755C12.6875 25.9744 12.5847 26.5419 12.4414 26.5419H6.21359ZM16.1427 26.5419C16.0125 26.5419 15.8977 25.9722 15.8977 25.2755C15.8977 24.5755 15.9994 24.0113 16.1427 24.0113H22.3705C22.4995 24.0113 22.6155 24.5809 22.6155 25.2755C22.6155 25.9744 22.5127 26.5419 22.3705 26.5419H16.1427ZM26.0706 26.5419C25.9416 26.5419 25.8256 25.9722 25.8256 25.2755C25.8256 24.5755 25.9273 24.0113 26.0706 24.0113H32.2984C32.4275 24.0113 32.5434 24.5755 32.5434 25.27C31.9202 25.6591 31.3198 26.0838 30.7453 26.5419H26.0706ZM6.22781 33.7985C6.09875 33.7985 5.98281 33.2289 5.98281 32.531C5.98281 31.8321 6.08453 31.2624 6.22781 31.2624H12.4556C12.5847 31.2624 12.7006 31.8321 12.7006 32.531C12.7006 33.2289 12.5989 33.7985 12.4556 33.7985H6.22781ZM16.1558 33.7985C16.0267 33.7985 15.9108 33.2289 15.9108 32.531C15.9108 31.8321 16.0125 31.2624 16.1558 31.2624H22.3836C22.5127 31.2624 22.6286 31.8321 22.6286 32.531C22.6286 33.2289 22.5269 33.7985 22.3836 33.7985H16.1558ZM6.24094 41.0595C6.11188 41.0595 5.99594 40.4899 5.99594 39.7909C5.99594 39.0931 6.09875 38.5234 6.24094 38.5234H12.4688C12.5989 38.5234 12.7148 39.0931 12.7148 39.7909C12.7148 40.4899 12.612 41.0595 12.4688 41.0595H6.24094ZM16.17 41.0595C16.0398 41.0595 15.9239 40.4899 15.9239 39.7909C15.9239 39.0931 16.0267 38.5234 16.17 38.5234H22.3978C22.5269 38.5234 22.6428 39.0931 22.6428 39.7909C22.6428 40.4899 22.54 41.0595 22.3978 41.0595H16.17ZM11.6845 1.87441C11.6845 0.842444 12.7006 0 13.9661 0C15.2316 0 16.2477 0.838062 16.2477 1.87441V10.0743C16.2477 11.1062 15.2283 11.9487 13.9661 11.9487C12.7006 11.9487 11.6845 11.1106 11.6845 10.0743V1.87441ZM2.51344 17.9268H45.978V8.48578C45.978 8.1637 45.8489 7.87997 45.6411 7.67182C45.4333 7.46368 45.1369 7.33441 44.8273 7.33441H40.6602C39.9613 7.33441 39.3947 6.76474 39.3947 6.06691C39.3947 5.36798 39.9613 4.79831 40.6602 4.79831H44.8273C45.8489 4.79831 46.7633 5.21132 47.4327 5.88177C48.1031 6.55331 48.5144 7.46915 48.5144 8.49126V23.4789C47.6831 23.1918 46.8278 22.9607 45.9495 22.7898V20.4476H45.978H2.51344V44.896C2.51344 45.2181 2.64359 45.5007 2.85031 45.7089C3.05813 45.917 3.35453 46.0474 3.66297 46.0474H24.3206C24.5547 46.9249 24.8511 47.7816 25.2077 48.6054H3.68703C2.66984 48.6054 1.75109 48.1946 1.08172 47.5219C0.410156 46.8569 0 45.9411 0 44.9179V8.49564C0 7.47792 0.410156 6.5566 1.08172 5.88615C1.75109 5.2146 2.66547 4.80379 3.68703 4.80379H8.13531C8.83313 4.80379 9.40187 5.37345 9.40187 6.07019C9.40187 6.77022 8.83313 7.33988 8.13531 7.33988H3.68703C3.36328 7.33988 3.08109 7.46915 2.87328 7.6773C2.66547 7.88545 2.53531 8.18014 2.53531 8.49126V17.9301H2.51344V17.9268ZM19.8975 7.33441C19.2008 7.33441 18.632 6.76474 18.632 6.06691C18.632 5.36798 19.2008 4.79831 19.8975 4.79831H28.3795C29.0784 4.79831 29.6472 5.36798 29.6472 6.06691C29.6472 6.76474 29.0784 7.33441 28.3795 7.33441H19.8975Z" fill="#3E67E9"/>
</svg>
