<svg width="96" height="96" viewBox="0 0 96 96" fill="none" xmlns="http://www.w3.org/2000/svg">
<path d="M20.4375 75.5625C16.9875 72.1125 19.275 64.875 17.5125 60.6375C15.75 56.4 9 52.6875 9 48C9 43.3125 15.675 39.75 17.5125 35.3625C19.35 30.975 16.9875 23.8875 20.4375 20.4375C23.8875 16.9875 31.125 19.275 35.3625 17.5125C39.6 15.75 43.3125 9 48 9C52.6875 9 56.25 15.675 60.6375 17.5125C65.025 19.35 72.1125 16.9875 75.5625 20.4375C79.0125 23.8875 76.725 31.125 78.4875 35.3625C80.25 39.6 87 43.3125 87 48C87 52.6875 80.325 56.25 78.4875 60.6375C76.65 65.025 79.0125 72.1125 75.5625 75.5625C72.1125 79.0125 64.875 76.725 60.6375 78.4875C56.4 80.25 52.6875 87 48 87C43.3125 87 39.75 80.325 35.3625 78.4875C30.975 76.65 23.8875 79.0125 20.4375 75.5625Z" stroke="#12B76A" stroke-width="6" stroke-linecap="round" stroke-linejoin="round"/>
<path d="M64.5 39L42.4875 60L31.5 49.5" stroke="#12B76A" stroke-width="6" stroke-linecap="round" stroke-linejoin="round"/>
</svg>
